<svg version="1.1" xmlns="http://www.w3.org/2000/svg" xmlns:xlink="http://www.w3.org/1999/xlink" width="206" height="146" viewBox="0 0 206 146"><defs><filter id="bubble2-fx" filterUnits="userSpaceOnUse"><feFlood flood-color="#2980B9" flood-opacity="1.000"/><feComposite operator="in" in2="SourceGraphic"/><feBlend mode="normal" in2="SourceGraphic" result="colorOverlay"/></filter></defs><g id="bubble2"><path id="bubble2" d="M198.200,62.566 C196.100,56.413 200.282,37.428 197.126,31.492 C176.974,-6.370 166.152,12.767 148.061,9.329 C139.196,7.643 124.890,8.225 118.275,3.787 C99.852,-8.575 82.013,13.077 63.952,14.871 C55.926,15.669 41.144,9.779 33.287,10.251 C21.396,10.974 7.744,19.246 5.057,30.779 C2.133,43.356 3.139,51.240 6.780,63.564 C9.399,72.412 -0.504,73.876 -0.001,82.286 C1.335,104.617 14.271,106.185 22.667,111.594 C33.002,118.252 44.419,110.550 55.416,113.641 C59.987,114.926 63.136,118.998 67.633,120.427 C75.984,123.077 82.849,118.510 90.414,115.671 C97.038,113.184 104.497,110.691 111.611,110.791 C118.742,110.892 123.405,116.359 129.926,118.667 C132.734,119.659 135.611,120.252 138.517,120.560 C138.517,120.560 136.673,121.075 136.673,121.075 C137.504,131.278 131.891,138.315 127.909,146.013 C143.906,145.279 156.047,130.269 160.799,120.203 C167.282,120.619 174.494,121.338 178.728,118.303 C183.888,114.606 182.695,105.173 186.792,101.046 C188.250,99.579 189.860,98.230 191.763,97.104 C198.553,93.085 205.280,91.285 205.970,81.456 C206.504,73.880 200.437,69.116 198.200,62.566 z" fill="#2980B9" filter="url(#bubble2-fx)" /></g></svg>